<?xml version="1.0" encoding="utf-8"?>
<!-- Generator: Adobe Illustrator 24.1.1, SVG Export Plug-In . SVG Version: 6.00 Build 0)  -->
<svg version="1.1" id="Ebene_1" xmlns="http://www.w3.org/2000/svg" xmlns:xlink="http://www.w3.org/1999/xlink" x="0px" y="0px"
	 viewBox="0 0 16 16" xml:space="preserve">
<g>
	<circle cx="8" cy="8.1" r="3.2"/>
	<path d="M12.6,14c4.3-3.3,3.3-11.1-2-12.8C-1.9-2.4-3,17.5,9.8,15.3c0.3-0.1,0.4,0,0.6,0.2c0.2,0.2,0.3,0.3,0.5,0.5H14
		c-0.5-0.5-1-1-1.5-1.6C12.4,14.3,12.4,14.2,12.6,14z M3.6,9.9L3.6,9.9c-2-8,8.6-9.4,8.9-2C13.1,14.1,5,15.2,3.6,9.9z"/>
</g>
</svg>
